<?xml version="1.0" encoding="UTF-8" standalone="no"?>
<!DOCTYPE svg PUBLIC "-//W3C//DTD SVG 1.1//EN"
 "http://www.w3.org/Graphics/SVG/1.1/DTD/svg11.dtd">
<!-- Generated by graphviz version 2.34.0 (20130907.0228)
 -->
<!-- Title: %3 Pages: 1 -->
<svg width="648pt" height="194pt"
 viewBox="0.00 0.00 648.00 194.00" xmlns="http://www.w3.org/2000/svg" xmlns:xlink="http://www.w3.org/1999/xlink">
<g id="graph0" class="graph" transform="scale(1 1) rotate(0) translate(4 190)">
<title>%3</title>
<polygon fill="white" stroke="white" points="-4,4 -4,-190 644,-190 644,4 -4,4"/>
<!-- org_liveSense_framework_gxt -->
<g id="node1" class="node"><title>org_liveSense_framework_gxt</title>
<polygon fill="yellow" stroke="black" points="333,-149 333,-185 507,-185 507,-149 333,-149"/>
<text text-anchor="middle" x="420" y="-174.1" font-family="Arial" font-size="8.00">liveSense :: Framework :: GXT (ExtGWT)</text>
<polyline fill="none" stroke="black" points="333,-167 507,-167 "/>
<text text-anchor="middle" x="420" y="-156.1" font-family="Arial" font-size="8.00">org.liveSense.framework.gxt(2&#45;SNAPSHOT)</text>
</g>
<!-- org_liveSense_framework_gwt -->
<g id="node2" class="node"><title>org_liveSense_framework_gwt</title>
<polygon fill="green" stroke="black" points="247,-75 247,-111 423,-111 423,-75 247,-75"/>
<text text-anchor="middle" x="335" y="-100.1" font-family="Arial" font-size="8.00">liveSense :: Framework :: GWT framework</text>
<polyline fill="none" stroke="black" points="247,-93 423,-93 "/>
<text text-anchor="middle" x="335" y="-82.1" font-family="Arial" font-size="8.00">org.liveSense.framework.gwt(2&#45;SNAPSHOT)</text>
</g>
<!-- org_liveSense_framework_gxt&#45;&gt;org_liveSense_framework_gwt -->
<g id="edge1" class="edge"><title>org_liveSense_framework_gxt&#45;&gt;org_liveSense_framework_gwt</title>
<path fill="none" stroke="yellow" d="M399.856,-148.937C388.927,-139.679 375.24,-128.086 363.26,-117.938"/>
<polygon fill="yellow" stroke="yellow" points="365.186,-114.983 355.294,-111.19 360.662,-120.324 365.186,-114.983"/>
</g>
<!-- org_apache_commons_lang -->
<g id="node3" class="node"><title>org_apache_commons_lang</title>
<polygon fill="green" stroke="black" points="441.5,-75 441.5,-111 568.5,-111 568.5,-75 441.5,-75"/>
<text text-anchor="middle" x="505" y="-100.1" font-family="Arial" font-size="8.00">Commons Lang</text>
<polyline fill="none" stroke="black" points="441.5,-93 568.5,-93 "/>
<text text-anchor="middle" x="505" y="-82.1" font-family="Arial" font-size="8.00">org.apache.commons.lang(2.6)</text>
</g>
<!-- org_liveSense_framework_gxt&#45;&gt;org_apache_commons_lang -->
<g id="edge2" class="edge"><title>org_liveSense_framework_gxt&#45;&gt;org_apache_commons_lang</title>
<path fill="none" stroke="yellow" d="M440.144,-148.937C451.073,-139.679 464.76,-128.086 476.74,-117.938"/>
<polygon fill="yellow" stroke="yellow" points="479.338,-120.324 484.706,-111.19 474.814,-114.983 479.338,-120.324"/>
</g>
<!-- org_apache_geronimo_specs_geronimo_servlet_3_0_spec -->
<g id="node4" class="node"><title>org_apache_geronimo_specs_geronimo_servlet_3_0_spec</title>
<polygon fill="#3182bd" stroke="black" points="0,-1 0,-37 230,-37 230,-1 0,-1"/>
<text text-anchor="middle" x="115" y="-26.1" font-family="Arial" font-size="8.00">Servlet 3.0</text>
<polyline fill="none" stroke="black" points="0,-19 230,-19 "/>
<text text-anchor="middle" x="115" y="-8.1" font-family="Arial" font-size="8.00">org.apache.geronimo.specs.geronimo&#45;servlet_3.0_spec(1.0)</text>
</g>
<!-- org_liveSense_framework_gwt&#45;&gt;org_apache_geronimo_specs_geronimo_servlet_3_0_spec -->
<g id="edge3" class="edge"><title>org_liveSense_framework_gwt&#45;&gt;org_apache_geronimo_specs_geronimo_servlet_3_0_spec</title>
<path fill="none" stroke="green" d="M282.863,-74.937C251.06,-64.5286 210.235,-51.1679 176.81,-40.2287"/>
<polygon fill="green" stroke="green" points="177.736,-36.8492 167.143,-37.0651 175.559,-43.502 177.736,-36.8492"/>
</g>
<!-- org_apache_servicemix_bundles_junit -->
<g id="node5" class="node"><title>org_apache_servicemix_bundles_junit</title>
<polygon fill="#3182bd" stroke="black" points="248.5,-1 248.5,-37 421.5,-37 421.5,-1 248.5,-1"/>
<text text-anchor="middle" x="335" y="-26.1" font-family="Arial" font-size="8.00">Apache ServiceMix :: Bundles :: junit</text>
<polyline fill="none" stroke="black" points="248.5,-19 421.5,-19 "/>
<text text-anchor="middle" x="335" y="-8.1" font-family="Arial" font-size="8.00">org.apache.servicemix.bundles.junit(3.8.2.4)</text>
</g>
<!-- org_liveSense_framework_gwt&#45;&gt;org_apache_servicemix_bundles_junit -->
<g id="edge4" class="edge"><title>org_liveSense_framework_gwt&#45;&gt;org_apache_servicemix_bundles_junit</title>
<path fill="none" stroke="green" d="M335,-74.937C335,-66.8072 335,-56.8761 335,-47.7047"/>
<polygon fill="green" stroke="green" points="338.5,-47.4406 335,-37.4407 331.5,-47.4407 338.5,-47.4406"/>
</g>
<!-- org_apache_servicemix_specs_jsr303_api_1_0_0 -->
<g id="node6" class="node"><title>org_apache_servicemix_specs_jsr303_api_1_0_0</title>
<polygon fill="#3182bd" stroke="black" points="439.5,-1 439.5,-37 640.5,-37 640.5,-1 439.5,-1"/>
<text text-anchor="middle" x="540" y="-26.1" font-family="Arial" font-size="8.00">Apache ServiceMix :: Specs :: JSR&#45;303 API 1.0.0</text>
<polyline fill="none" stroke="black" points="439.5,-19 640.5,-19 "/>
<text text-anchor="middle" x="540" y="-8.1" font-family="Arial" font-size="8.00">org.apache.servicemix.specs.jsr303&#45;api&#45;1.0.0(2.2.0)</text>
</g>
<!-- org_liveSense_framework_gwt&#45;&gt;org_apache_servicemix_specs_jsr303_api_1_0_0 -->
<g id="edge5" class="edge"><title>org_liveSense_framework_gwt&#45;&gt;org_apache_servicemix_specs_jsr303_api_1_0_0</title>
<path fill="none" stroke="green" d="M383.582,-74.937C412.963,-64.618 450.606,-51.397 481.601,-40.5109"/>
<polygon fill="green" stroke="green" points="483.137,-43.6812 491.412,-37.0651 480.817,-37.0767 483.137,-43.6812"/>
</g>
</g>
</svg>
